<?xml version="1.0" encoding="iso-8859-1"?>
<!-- Generator: Adobe Illustrator 19.0.0, SVG Export Plug-In . SVG Version: 6.00 Build 0)  -->
<svg version="1.1" id="Layer_1" xmlns="http://www.w3.org/2000/svg" xmlns:xlink="http://www.w3.org/1999/xlink" x="0px" y="0px"
	 viewBox="0 0 512 512" style="enable-background:new 0 0 512 512;" xml:space="preserve">
<g>
	<g>
		<path d="M478.317,241.475c-12.793-62.348-51.312-115.494-103.908-147.797h50.577c6.619,16.298,22.615,27.826,41.262,27.826
			c24.549,0,44.522-19.972,44.522-44.522c0-24.549-19.972-44.522-44.522-44.522c-18.647,0-34.642,11.528-41.262,27.826H301.754
			V31.228h-91.508v29.059H87.016c-6.619-16.298-22.615-27.826-41.262-27.826c-24.549,0-44.522,19.972-44.522,44.522
			c0,24.549,19.972,44.522,44.522,44.522c18.647,0,34.642-11.528,41.262-27.826h50.578
			c-52.597,32.303-91.116,85.449-103.908,147.797H0v91.508h91.508v-91.508h-23.61c17.005-70.029,72.319-125.343,142.348-142.35
			v23.611h91.508v-23.61c70.029,17.005,125.343,72.32,142.349,142.35h-23.611v91.508H512v-91.509H478.317z"/>
	</g>
</g>
<g>
	<g>
		<path d="M272.696,195.083v90.618c10.812,5.915,18.146,17.392,18.146,30.585c0,19.242-15.599,34.842-34.842,34.842
			c-19.242,0-34.842-15.599-34.842-34.842c0-13.193,7.334-24.672,18.146-30.585v-90.618L134.712,336.806l35.328,65.395H341.96
			l35.328-65.395L272.696,195.083z"/>
	</g>
</g>
<g>
	<g>
		<polygon points="336.254,435.592 175.746,435.592 157.391,480.772 256,480.772 354.609,480.772 		"/>
	</g>
</g>
<g>
</g>
<g>
</g>
<g>
</g>
<g>
</g>
<g>
</g>
<g>
</g>
<g>
</g>
<g>
</g>
<g>
</g>
<g>
</g>
<g>
</g>
<g>
</g>
<g>
</g>
<g>
</g>
<g>
</g>
</svg>
