<?xml version="1.0" encoding="iso-8859-1"?>
<!-- Generator: Adobe Illustrator 18.0.0, SVG Export Plug-In . SVG Version: 6.00 Build 0)  -->
<!DOCTYPE svg PUBLIC "-//W3C//DTD SVG 1.1//EN" "http://www.w3.org/Graphics/SVG/1.1/DTD/svg11.dtd">
<svg version="1.1" id="Capa_1" xmlns="http://www.w3.org/2000/svg" xmlns:xlink="http://www.w3.org/1999/xlink" x="0px" y="0px"
	 viewBox="0 0 330 330" style="enable-background:new 0 0 330 330;" xml:space="preserve">
<g>
	<rect x="102.39" y="55" width="30" height="30"/>
	<rect x="152.39" y="55" width="30" height="30"/>
	<rect x="102.39" y="105" width="30" height="30"/>
	<rect x="152.39" y="105" width="30" height="30"/>
	<rect x="102.39" y="155" width="30" height="30"/>
	<circle cx="222.39" cy="240.073" r="7.536"/>
	<path d="M237.39,181.892V15.016c0-8.284-6.715-14.999-14.999-15L62.391,0H62.39c-3.978,0-7.793,1.58-10.606,4.393
		C48.97,7.206,47.39,11.021,47.39,15v300c0,8.284,6.716,15,15,15h159c0.14,0,0.275-0.017,0.414-0.021
		c0.195,0.008,0.391,0.021,0.586,0.021c2.856,0,5.714-0.815,8.207-2.444c0.701-0.459,7.085-4.696,15.211-12.268
		c16.79-15.64,36.803-41.357,36.803-75.06C282.61,212.196,263.362,188.575,237.39,181.892z M77.39,30.001l130,0.013v151.877
		c-25.972,6.684-45.221,30.304-45.221,58.336c0,24.581,10.845,44.92,22.638,59.772H77.39V30.001z M225.357,293.338
		c-1.026,0.956-2.016,1.844-2.954,2.659c-11.301-9.835-30.234-30.139-30.234-55.77c0-16.666,13.554-30.225,30.214-30.229
		c0.002,0,0.004,0.001,0.006,0.001c0.002,0,0.004-0.001,0.006-0.001c16.661,0.004,30.214,13.563,30.214,30.229
		C252.61,263.142,237.791,281.756,225.357,293.338z"/>
</g>
<g>
</g>
<g>
</g>
<g>
</g>
<g>
</g>
<g>
</g>
<g>
</g>
<g>
</g>
<g>
</g>
<g>
</g>
<g>
</g>
<g>
</g>
<g>
</g>
<g>
</g>
<g>
</g>
<g>
</g>
</svg>
